<svg width="50" height="50" viewBox="0 0 50 50" fill="none" xmlns="http://www.w3.org/2000/svg">
<rect width="50" height="50" rx="25" fill="#6160DC"/>
<path d="M36.2798 21.8401C36.0926 19.892 35.4042 18.0255 34.2814 16.4225C33.1587 14.8195 31.64 13.5345 29.8732 12.6927C28.1064 11.851 26.1517 11.481 24.1995 11.619C22.2472 11.757 20.364 12.3982 18.7332 13.4801C17.3321 14.4169 16.1559 15.6525 15.2891 17.0979C14.4223 18.5434 13.8864 20.1629 13.7198 21.8401C13.5565 23.5063 13.7661 25.188 14.3334 26.7631C14.9007 28.3383 15.8116 29.7674 16.9998 30.9468L24.0665 38.0268C24.1905 38.1517 24.3379 38.2509 24.5004 38.3186C24.6629 38.3863 24.8372 38.4212 25.0132 38.4212C25.1892 38.4212 25.3635 38.3863 25.5259 38.3186C25.6884 38.2509 25.8359 38.1517 25.9598 38.0268L32.9998 30.9468C34.1881 29.7674 35.099 28.3383 35.6663 26.7631C36.2336 25.188 36.4432 23.5063 36.2798 21.8401ZM31.1332 29.0668L24.9998 35.2001L18.8665 29.0668C17.9626 28.1628 17.2702 27.0699 16.8391 25.8664C16.408 24.663 16.2489 23.379 16.3732 22.1068C16.4983 20.8149 16.9089 19.567 17.5753 18.4532C18.2417 17.3395 19.1473 16.3877 20.2265 15.6668C21.6411 14.7271 23.3016 14.2258 24.9998 14.2258C26.6981 14.2258 28.3586 14.7271 29.7732 15.6668C30.8492 16.3849 31.7527 17.3325 32.419 18.4413C33.0852 19.5502 33.4976 20.7929 33.6265 22.0801C33.7548 23.3567 33.5977 24.6458 33.1665 25.8542C32.7353 27.0625 32.0407 28.1599 31.1332 29.0668ZM24.9998 17.0001C23.8132 17.0001 22.6531 17.352 21.6664 18.0113C20.6797 18.6706 19.9107 19.6076 19.4566 20.704C19.0024 21.8003 18.8836 23.0067 19.1151 24.1706C19.3466 25.3345 19.9181 26.4036 20.7572 27.2427C21.5963 28.0818 22.6654 28.6533 23.8293 28.8848C24.9932 29.1163 26.1996 28.9975 27.2959 28.5434C28.3923 28.0892 29.3294 27.3202 29.9887 26.3335C30.6479 25.3468 30.9998 24.1868 30.9998 23.0001C30.9963 21.4099 30.363 19.8858 29.2386 18.7613C28.1141 17.6369 26.5901 17.0036 24.9998 17.0001ZM24.9998 26.3334C24.3406 26.3334 23.6961 26.1379 23.1479 25.7717C22.5998 25.4054 22.1725 24.8848 21.9202 24.2757C21.668 23.6666 21.6019 22.9964 21.7306 22.3498C21.8592 21.7032 22.1766 21.1092 22.6428 20.6431C23.109 20.1769 23.7029 19.8594 24.3495 19.7308C24.9961 19.6022 25.6664 19.6682 26.2755 19.9205C26.8845 20.1728 27.4051 20.6 27.7714 21.1482C28.1377 21.6964 28.3332 22.3408 28.3332 23.0001C28.3332 23.8841 27.982 24.732 27.3569 25.3571C26.7317 25.9822 25.8839 26.3334 24.9998 26.3334Z" fill="white"/>
</svg>
