<svg width="50" height="50" viewBox="0 0 50 50" fill="none" xmlns="http://www.w3.org/2000/svg">
<rect width="50" height="50" rx="25" fill="#6160DC"/>
<path d="M35 15H15C14.0054 15 13.0516 15.3951 12.3483 16.0983C11.6451 16.8016 11.25 17.7554 11.25 18.75V31.25C11.25 32.2446 11.6451 33.1984 12.3483 33.9017C13.0516 34.6049 14.0054 35 15 35H35C35.9946 35 36.9484 34.6049 37.6516 33.9017C38.3549 33.1984 38.75 32.2446 38.75 31.25V18.75C38.75 17.7554 38.3549 16.8016 37.6516 16.0983C36.9484 15.3951 35.9946 15 35 15ZM36.25 30.9375L30.125 25.4375L36.25 21.15V30.9375ZM13.75 21.15L19.875 25.4375L13.75 30.9375V21.15ZM21.975 26.9125L24.2875 28.525C24.4967 28.6702 24.7453 28.7479 25 28.7479C25.2547 28.7479 25.5033 28.6702 25.7125 28.525L28.025 26.9125L34.275 32.5H15.75L21.975 26.9125ZM15 17.5H35C35.2321 17.5019 35.4592 17.5683 35.6557 17.692C35.8522 17.8156 36.0104 17.9915 36.1125 18.2L25 25.975L13.8875 18.2C13.9896 17.9915 14.1478 17.8156 14.3443 17.692C14.5408 17.5683 14.7679 17.5019 15 17.5Z" fill="white"/>
</svg>
