<svg width="48" height="48" viewBox="0 0 48 48" fill="none" xmlns="http://www.w3.org/2000/svg">
<rect width="48" height="48" rx="24" fill="#00A389"/>
<g clip-path="url(#clip0_115_12)">
<path d="M15.2816 21.2553L15.3156 30.8606C15.3156 30.9964 15.3495 31.0982 15.3495 31.234C15.3495 31.3018 15.3834 31.3358 15.3834 31.4037C15.3834 31.4716 15.4174 31.5055 15.4513 31.6073C15.4853 31.6413 15.4853 31.7091 15.5532 31.777C15.5871 31.811 15.5871 31.8788 15.621 31.9128L15.8247 32.1164C15.8926 32.1843 15.9944 32.2861 16.0962 32.3201C16.1302 32.354 16.198 32.354 16.232 32.388C16.2659 32.4219 16.3338 32.4219 16.3677 32.4558C16.4017 32.4898 16.4696 32.4898 16.5374 32.4898C16.6393 32.5916 16.7072 32.5916 16.7072 32.5916C16.809 32.6255 16.9447 32.6255 17.0805 32.6255L26.6858 32.6595C27.161 32.6595 27.6023 32.4898 27.9417 32.1504C28.2811 31.811 28.4508 31.3697 28.4508 30.8946C28.4508 30.4194 28.2811 29.9781 27.9417 29.6387C27.6023 29.2993 27.161 29.1296 26.6858 29.1296L21.391 29.1296L32.1504 18.3703C32.8292 17.6915 32.8292 16.5375 32.1504 15.8586C31.4715 15.1798 30.3175 15.1798 29.6387 15.8586L18.8794 26.618L18.8794 21.3232C18.8794 20.848 18.7097 20.4067 18.3703 20.0673C18.0309 19.7279 17.5896 19.5582 17.1144 19.5582C16.6393 19.5582 16.198 19.7279 15.8586 20.0673C15.5192 20.3389 15.2816 20.7801 15.2816 21.2553Z" fill="white"/>
</g>
<defs>
<clipPath id="clip0_115_12">
<rect width="24" height="24" fill="white" transform="translate(23.9706 40.9412) rotate(-135)"/>
</clipPath>
</defs>
</svg>
