<svg width="48" height="48" viewBox="0 0 48 48" fill="none" xmlns="http://www.w3.org/2000/svg">
<rect width="48" height="48" rx="24" fill="#FF4A55"/>
<g clip-path="url(#clip0_107_55)">
<path d="M32.6595 26.6859L32.6256 17.0806C32.6256 16.9448 32.5917 16.843 32.5917 16.7072C32.5917 16.6393 32.5577 16.6054 32.5577 16.5375C32.5577 16.4696 32.5238 16.4357 32.4898 16.3338C32.4559 16.2999 32.4559 16.232 32.388 16.1641C32.3541 16.1302 32.3541 16.0623 32.3201 16.0284L32.1165 15.8247C32.0486 15.7568 31.9468 15.655 31.8449 15.6211C31.811 15.5871 31.7431 15.5871 31.7092 15.5532C31.6752 15.5193 31.6074 15.5193 31.5734 15.4853C31.5395 15.4514 31.4716 15.4514 31.4037 15.4514C31.3019 15.3496 31.234 15.3496 31.234 15.3496C31.1322 15.3156 30.9964 15.3156 30.8607 15.3156L21.2553 15.2817C20.7801 15.2817 20.3389 15.4514 19.9995 15.7908C19.6601 16.1302 19.4904 16.5714 19.4904 17.0466C19.4904 17.5218 19.6601 17.963 19.9995 18.3024C20.3389 18.6418 20.7801 18.8115 21.2553 18.8115L26.5501 18.8115L15.7908 29.5709C15.112 30.2497 15.112 31.4037 15.7908 32.0825C16.4696 32.7614 17.6236 32.7614 18.3024 32.0825L29.0618 21.3232L29.0618 26.618C29.0618 27.0932 29.2315 27.5344 29.5709 27.8738C29.9103 28.2132 30.3515 28.3829 30.8267 28.3829C31.3019 28.3829 31.7431 28.2132 32.0825 27.8738C32.4219 27.6023 32.6595 27.1611 32.6595 26.6859Z" fill="white"/>
</g>
<defs>
<clipPath id="clip0_107_55">
<rect width="24" height="24" fill="white" transform="translate(23.9706 7) rotate(45)"/>
</clipPath>
</defs>
</svg>
