<svg width="50" height="50" viewBox="0 0 50 50" fill="none" xmlns="http://www.w3.org/2000/svg">
<rect width="50" height="50" rx="25" fill="#6160DC"/>
<path d="M34.2993 26.25C34.0243 26.25 33.7368 26.1625 33.4618 26.1C32.9049 25.9772 32.3576 25.8143 31.8243 25.6125C31.2444 25.4015 30.607 25.4124 30.0347 25.6432C29.4624 25.874 28.9956 26.3082 28.7243 26.8625L28.4493 27.425C27.2318 26.7477 26.113 25.9065 25.1243 24.925C24.1427 23.9362 23.3015 22.8175 22.6243 21.6L23.1493 21.25C23.7035 20.9786 24.1377 20.5119 24.3685 19.9396C24.5993 19.3673 24.6102 18.7298 24.3993 18.15C24.2008 17.6155 24.0379 17.0685 23.9118 16.5125C23.8493 16.2375 23.7993 15.95 23.7618 15.6625C23.61 14.782 23.1488 13.9846 22.4613 13.414C21.7738 12.8434 20.9051 12.537 20.0118 12.55H16.2618C15.7231 12.5449 15.1896 12.656 14.6977 12.8756C14.2057 13.0953 13.7669 13.4183 13.4111 13.8228C13.0552 14.2273 12.7907 14.7037 12.6355 15.2196C12.4803 15.7355 12.4381 16.2788 12.5118 16.8125C13.1777 22.0492 15.5693 26.9148 19.3088 30.6408C23.0484 34.3667 27.9227 36.7406 33.1618 37.3875H33.6368C34.5585 37.3888 35.4485 37.0506 36.1368 36.4375C36.5322 36.0838 36.8481 35.6502 37.0636 35.1654C37.2791 34.6805 37.3892 34.1555 37.3868 33.625V29.875C37.3715 29.0067 37.0553 28.1706 36.4922 27.5095C35.9291 26.8484 35.154 26.4032 34.2993 26.25ZM34.9243 33.75C34.924 33.9274 34.886 34.1028 34.8127 34.2645C34.7395 34.4261 34.6326 34.5703 34.4993 34.6875C34.3596 34.808 34.1963 34.8981 34.0198 34.9519C33.8433 35.0058 33.6575 35.0221 33.4743 35C28.7929 34.3997 24.4446 32.2581 21.1152 28.9128C17.7858 25.5676 15.6648 21.2091 15.0868 16.525C15.0669 16.3419 15.0843 16.1566 15.138 15.9804C15.1917 15.8043 15.2806 15.6408 15.3993 15.5C15.5164 15.3666 15.6606 15.2598 15.8222 15.1865C15.9839 15.1132 16.1593 15.0752 16.3368 15.075H20.0868C20.3775 15.0685 20.6613 15.1636 20.8895 15.3438C21.1176 15.524 21.2758 15.7782 21.3368 16.0625C21.3868 16.4041 21.4493 16.7416 21.5243 17.075C21.6687 17.7339 21.8608 18.3814 22.0993 19.0125L20.3493 19.825C20.1996 19.8936 20.065 19.9911 19.9532 20.112C19.8414 20.2328 19.7545 20.3745 19.6976 20.5289C19.6407 20.6834 19.6149 20.8476 19.6216 21.0121C19.6283 21.1766 19.6674 21.3381 19.7368 21.4875C21.5358 25.3409 24.6333 28.4385 28.4868 30.2375C28.7911 30.3625 29.1324 30.3625 29.4368 30.2375C29.5927 30.1817 29.7359 30.0955 29.8582 29.9839C29.9805 29.8724 30.0795 29.7376 30.1493 29.5875L30.9243 27.8375C31.5705 28.0686 32.23 28.2606 32.8993 28.4125C33.2326 28.4875 33.5701 28.55 33.9118 28.6C34.1961 28.6609 34.4502 28.8191 34.6304 29.0473C34.8107 29.2754 34.9057 29.5593 34.8993 29.85L34.9243 33.75Z" fill="white"/>
</svg>
